# xmcd
#
# Track frame offsets: 
#        150
#        14440
#        34045
#        52099
#        71636
#        91301
#        100785
#        116522
#        139867
#        154129
#        165976
#        179258
#        196668
#        208003
#        228477
#        246052
#        263761
#        278577
#        296612
#        312588
#        338616
#
# Disc length: 4783 seconds
#
# Revision: 0
# Processed by: cddbd v1.5.2PL0 Copyright (c) Steve Scherf et al.
# Submitted via: ExactAudioCopy v0.95a5
#
DISCID=2612ad15
DTITLE=Various Artist - Akella Presents - Country Blues - vol.10  CD2
DYEAR=2010
DGENRE=Blues
TTITLE0=Don't Cry Sister - J.J.CALE and ERIC CLAPTON
TTITLE1=Buck These Haggard Blues - BIG HOUS
TTITLE2=Hand Me Down - THREE HANKS
TTITLE3=Crocodile Shoes - JIMMY NAIL
TTITLE4=Wait Til Your Daddy Gets Home - VINCE GIL
TTITLE5=An American Hero - MARK KNOPFLER
TTITLE6=Don't Believe Everything You're Told - BIG HOUSE
TTITLE7=Be Good To Me - HANK SHIZZOE
TTITLE8=South Of the Border  Down Mexico Way - CHRIS ISAAK
TTITLE9=Down South Jukin' - LYNYRD SKYNYRD
TTITLE10=Gone - JOHN HIATT
TTITLE11=Will You Miss Me - The NOTTING HILLBILLIES
TTITLE12=When You Were Young - AMERICAN BLUES BOX
TTITLE13=Wedding Song - MARIA MULDAUR
TTITLE14=Luckiest Man - The WOOD BROTHERS
TTITLE15=Steel My Kisses - TRIPLEX
TTITLE16=Natural Born Eas'Man - GUY DAVIS
TTITLE17=Nobody Dies From a Broken Heart - REBA McENTIRE
TTITLE18=Means Of Survival - DAVE KNOPFLER
TTITLE19='Til I Gain Control Again - ALBERT LEE and HOGAN'S HEROES
TTITLE20=What My Momma Told Me,That's All Right - JUNIOR WELLS
EXTD=
EXTT0=
EXTT1=
EXTT2=
EXTT3=
EXTT4=
EXTT5=
EXTT6=
EXTT7=
EXTT8=
EXTT9=
EXTT10=
EXTT11=
EXTT12=
EXTT13=
EXTT14=
EXTT15=
EXTT16=
EXTT17=
EXTT18=
EXTT19=
EXTT20=
PLAYORDER=
